#!OML:ASF F:\VICON\USERDATA\INSTALL\rory3\rory3.ASF
:FULLY-SPECIFIED
:DEGREES
497
root -3.5397 17.6113 -4.13584 7.57585 -37.439 -0.480198
lowerback 6.74865 2.95255 -1.71188
upperback 2.55443 3.82905 2.31539
thorax -1.41211 1.88938 3.03846
lowerneck -24.0724 2.80616 -7.03126
upperneck 7.3703 5.27928 4.20553
head 5.74074 2.70371 3.07006
rclavicle -6.36111e-014 -7.15625e-015
rhumerus -32.76 24.0171 -96.7953
rradius 30.57
rwrist 31.8062
rhand -14.6136 3.25174
rfingers 7.12502
rthumb 11.5374 -26.4107
lclavicle -6.36111e-014 -7.15625e-015
lhumerus -26.1149 -23.8203 92.016
lradius 37.2645
lwrist 12.4916
lhand -11.7792 27.8118
lfingers 7.12502
lthumb 14.2698 57.3015
rfemur -10.3505 -8.69938 15.3103
rtibia 46.4859
rfoot -11.1825 3.47322
rtoes -5.22391
lfemur -30.2937 5.15386 -22.0992
ltibia 32.1867
lfoot -5.61088 3.64109
ltoes -6.42315
498
root -3.56212 17.5956 -4.04739 7.55838 -36.443 -0.674686
lowerback 6.85761 2.88744 -1.4238
upperback 2.67924 3.75894 2.45359
thorax -1.33021 1.85171 3.02431
lowerneck -24.3697 2.69935 -7.1458
upperneck 7.60129 5.19524 4.19153
head 5.86276 2.65509 3.08741
rclavicle -1.41137e-014 -1.74931e-014
rhumerus -33.0916 22.1713 -96.1899
rradius 30.3529
rwrist 29.7855
rhand -12.7865 3.71739
rfingers 7.12502
rthumb 13.299 -25.8383
lclavicle -1.41137e-014 -1.74931e-014
lhumerus -27.4793 -24.449 92.635
lradius 38.2536
lwrist 14.6055
lhand -12.7708 26.4086
lfingers 7.12502
lthumb 13.3141 55.9633
rfemur -10.6892 -9.39087 15.2387
rtibia 47.9671
rfoot -9.5421 3.23973
rtoes -3.70756
lfemur -30.1484 4.82174 -22.098
ltibia 32.5395
lfoot -5.94594 3.17475
ltoes -6.93922
499
root -3.58484 17.5892 -3.95169 7.20442 -35.0145 -0.705153
lowerback 7.12201 2.6344 -1.0978
upperback 2.82408 3.44053 2.56543
thorax -1.2948 1.69061 2.97658
lowerneck -24.6154 2.6422 -7.28786
upperneck 7.95752 5.16637 4.30274
head 6.0107 2.6412 3.15748
rclavicle 8.34896e-015 -4.53229e-014
rhumerus -33.5741 19.9171 -95.334
rradius 30.8559
rwrist 26.7193
rhand -12.9704 -0.939424
rfingers 7.12502
rthumb 13.1217 -30.5066
lclavicle 8.34896e-015 -4.53229e-014
lhumerus -28.9353 -25.0441 93.3591
lradius 39.5169
lwrist 15.7034
lhand -13.3379 26.2515
lfingers 7.12502
lthumb 12.7674 55.8412
rfemur -10.6188 -10.6245 14.9561
rtibia 49.4124
rfoot -8.05988 3.06056
rtoes -2.39767
lfemur -29.6744 4.07622 -22.1682
ltibia 32.8207
lfoot -6.30377 2.66232
ltoes -6.9191
500
root -3.60926 17.5877 -3.86809 6.70367 -34.4047 -0.373564
lowerback 7.31243 2.68429 -1.34
upperback 2.99747 3.48608 2.56712
thorax -1.2382 1.70934 3.10643
lowerneck -24.7566 2.61414 -7.37898
upperneck 8.24756 5.15982 4.36806
head 6.1229 2.63638 3.20304
rclavicle -3.93594e-014 -7.95139e-015
rhumerus -34.0536 17.3437 -94.2009
rradius 32.3214
rwrist 23.1362
rhand -14.3756 -0.176071
rfingers 7.12502
rthumb 11.7669 -29.8255
lclavicle -3.93594e-014 -7.95139e-015
lhumerus -30.0885 -25.0416 93.8492
lradius 41.0502
lwrist 16.7653
lhand -13.2928 26.2672
lfingers 7.12502
lthumb 12.811 55.8541
rfemur -10.8273 -11.4396 14.1848
rtibia 50.8653
rfoot -6.23794 3.02973
rtoes 0.0418453
lfemur -29.1768 3.8346 -22.5843
ltibia 33.0636
lfoot -6.8038 2.40296
ltoes -6.27384
501
root -3.63255 17.5818 -3.7841 6.32863 -33.6302 -0.0234117
lowerback 7.39198 2.70396 -1.59716
upperback 3.07773 3.49393 2.60724
thorax -1.21718 1.71073 3.29025
lowerneck -24.5953 2.58173 -7.48882
upperneck 8.35559 5.14551 4.34108
head 6.13281 2.62074 3.20842
rclavicle 8.88567e-014 7.95139e-016
rhumerus -34.436 14.2794 -92.7727
rradius 34.1268
rwrist 21.1598
rhand -14.0772 0.894228
rfingers 7.12502
rthumb 12.0547 -28.7386
lclavicle 8.88567e-014 7.95139e-016
lhumerus -31.3393 -24.8569 94.5189
lradius 42.8366
lwrist 17.5614
lhand -12.8578 26.547
lfingers 7.12502
lthumb 13.2303 56.1072
rfemur -11.1222 -12.5277 13.4048
rtibia 52.2683
rfoot -4.40081 2.99069
rtoes 2.69265
lfemur -28.8309 3.53365 -23.0422
ltibia 33.2861
lfoot -7.12367 1.9826
ltoes -6.6704
502
root -3.64947 17.5746 -3.7033 6.30042 -32.8108 -0.195353
lowerback 7.54855 2.71058 -1.34514
upperback 3.08379 3.52085 2.72625
thorax -1.29203 1.72543 3.26252
lowerneck -24.2623 2.51131 -7.53509
upperneck 8.26134 5.04819 4.30873
head 6.05781 2.56992 3.18415
rclavicle -1.00386e-013 3.18055e-015
rhumerus -34.7057 11.3073 -91.3941
rradius 35.8057
rwrist 20.7288
rhand -13.0226 0.262547
rfingers 7.12502
rthumb 13.0714 -29.3078
lclavicle -1.00386e-013 3.18055e-015
lhumerus -32.5137 -25.0919 95.3523
lradius 44.3939
lwrist 18.1297
lhand -12.6817 26.388
lfingers 7.12502
lthumb 13.4 55.937
rfemur -11.4916 -13.5244 13.1673
rtibia 53.6461
rfoot -2.74862 2.86008
rtoes 3.82268
lfemur -28.6027 3.2963 -23.0329
ltibia 33.5221
lfoot -7.20834 1.42196
ltoes -8.73553
503
root -3.66078 17.5707 -3.62839 6.31331 -32.1306 -0.598374
lowerback 7.82317 2.72822 -0.81021
upperback 3.13317 3.58063 2.77757
thorax -1.36815 1.75676 2.99867
lowerneck -24.1264 2.49599 -7.26853
upperneck 8.29577 4.94881 4.22169
head 6.0637 2.52198 3.10112
rclavicle 3.85642e-014 -7.95139e-016
rhumerus -34.8237 9.29408 -90.5041
rradius 37.2729
rwrist 20.5212
rhand -11.9732 -2.02058
rfingers 7.12502
rthumb 14.0828 -31.5234
lclavicle 3.85642e-014 -7.95139e-016
lhumerus -33.4629 -25.862 96.1224
lradius 45.6852
lwrist 18.9466
lhand -12.7911 25.6426
lfingers 7.12502
lthumb 13.2945 55.1986
rfemur -11.8372 -14.2035 13.2047
rtibia 54.98
rfoot -1.21687 2.58567
rtoes 3.63342
lfemur -28.3219 3.18666 -22.7956
ltibia 33.7545
lfoot -7.11047 0.948313
ltoes -9.65469
504
root -3.67447 17.5728 -3.55664 6.38573 -31.6301 -0.72208
lowerback 7.8092 2.74597 -0.627751
upperback 3.17171 3.61608 2.76836
thorax -1.31109 1.77449 2.88528
lowerneck -24.1153 2.55215 -7.10853
upperneck 8.49176 4.96058 4.3165
head 6.12666 2.5387 3.11299
rclavicle -6.06293e-014 -1.35174e-014
rhumerus -34.7803 8.68449 -90.0451
rradius 38.5948
rwrist 19.871
rhand -11.1874 -3.42311
rfingers 7.12502
rthumb 14.84 -32.8717
lclavicle -6.06293e-014 -1.35174e-014
lhumerus -34.298 -26.3053 96.8235
lradius 47.0425
lwrist 19.6909
lhand -12.8057 25.0765
lfingers 7.12502
lthumb 13.2804 54.6333
rfemur -12.4748 -14.7174 13.0871
rtibia 56.2806
rfoot 0.0726312 2.40908
rtoes 3.20495
lfemur -28.2206 3.12745 -22.8191
ltibia 33.8839
lfoot -6.82518 0.610902
ltoes -9.57064
505
root -3.69214 17.5735 -3.48735 6.56645 -31.1939 -0.719216
lowerback 7.54599 2.75491 -0.688325
upperback 3.19723 3.62264 2.77043
thorax -1.14352 1.7766 2.93392
lowerneck -23.9101 2.62597 -7.07698
upperneck 8.4455 5.0051 4.53369
head 6.07276 2.58191 3.17787
rclavicle 1.0138e-013 2.54444e-014
rhumerus -34.3673 8.89836 -89.7939
rradius 39.4389
rwrist 19.3738
rhand -10.858 -3.33554
rfingers 7.12502
rthumb 15.1573 -32.7604
lclavicle 1.0138e-013 2.54444e-014
lhumerus -35.1618 -26.2047 97.4604
lradius 48.7138
lwrist 20.0025
lhand -12.525 24.8224
lfingers 7.12502
lthumb 13.551 54.3614
rfemur -13.3131 -15.025 12.9283
rtibia 57.5601
rfoot 0.980061 2.35439
rtoes 3.60917
lfemur -28.2178 3.13179 -22.9627
ltibia 33.8439
lfoot -7.00224 0.228553
ltoes -8.76869
506
root -3.71012 17.5703 -3.42053 6.51871 -30.5178 -0.724729
lowerback 7.58462 2.67781 -0.700884
upperback 3.21259 3.51991 2.78936
thorax -1.14502 1.72516 2.96844
lowerneck -23.5767 2.71174 -6.84196
upperneck 8.34225 5.02931 4.51684
head 5.99331 2.60078 3.12744
rclavicle -7.99114e-014 5.56597e-015
rhumerus -33.804 9.70591 -89.7155
rradius 39.8765
rwrist 19.3783
rhand -10.7973 -3.88548
rfingers 7.12502
rthumb 15.2158 -33.3059
lclavicle -7.99114e-014 5.56597e-015
lhumerus -35.9745 -25.9119 98.1156
lradius 50.2229
lwrist 19.9541
lhand -12.0564 24.5646
lfingers 7.12502
lthumb 14.0026 54.073
rfemur -13.7707 -15.3194 12.7473
rtibia 58.8179
rfoot 1.86271 2.00569
rtoes 5.47132
lfemur -27.8935 2.88222 -23.0213
ltibia 33.6848
lfoot -7.93108 -0.0966663
ltoes -5.95458
507
root -3.72766 17.5745 -3.35205 6.29165 -29.7428 -0.571524
lowerback 7.72171 2.4984 -0.82894
upperback 3.23113 3.27324 2.78219
thorax -1.19386 1.60163 3.04989
lowerneck -23.4237 2.84783 -6.59902
upperneck 8.47136 5.12355 4.54567
head 6.0115 2.65494 3.10807
rclavicle 4.53229e-014 7.95139e-016
rhumerus -33.2297 11.2442 -89.7606
rradius 40.1775
rwrist 19.7447
rhand -10.2022 -5.24329
rfingers 7.12502
rthumb 15.789 -34.6194
lclavicle 4.53229e-014 7.95139e-016
lhumerus -36.6442 -25.5299 98.7487
lradius 51.4273
lwrist 19.8667
lhand -11.6895 24.4478
lfingers 7.12502
lthumb 14.3562 53.9314
rfemur -14.0779 -15.7461 12.4148
rtibia 60.0328
rfoot 2.69132 1.69441
rtoes 4.8464
lfemur -27.4407 2.57731 -23.2341
ltibia 33.5357
lfoot -7.98793 -0.49599
ltoes -5.69107
508
root -3.74609 17.5749 -3.28645 6.21036 -29.0297 -0.395957
lowerback 7.65193 2.26122 -1.03512
upperback 3.1209 2.94827 2.80255
thorax -1.2606 1.44086 3.21682
lowerneck -22.7729 3.04798 -6.49968
upperneck 8.43377 5.30817 4.65149
head 5.88813 2.7552 3.12819
rclavicle 4.23411e-014 -3.26007e-014
rhumerus -32.805 13.2852 -89.8588
rradius 40.3178
rwrist 20.0248
rhand -9.50124 -5.62905
rfingers 7.12502
rthumb 16.4639 -34.9505
lclavicle 4.23411e-014 -3.26007e-014
lhumerus -37.4082 -24.9302 99.4016
lradius 52.4925
lwrist 19.5287
lhand -11.3015 24.54
lfingers 7.12502
lthumb 14.73 53.9967
rfemur -14.6144 -16.1309 12.1126
rtibia 61.2291
rfoot 3.12441 1.56057
rtoes 2.49773
lfemur -27.2173 2.43963 -23.5084
ltibia 33.4707
lfoot -8.10994 -1.01622
ltoes -5.537
509
root -3.7641 17.5644 -3.22682 6.27567 -28.3086 -0.345294
lowerback 7.54149 2.01625 -1.16146
upperback 2.87723 2.62297 2.87164
thorax -1.43867 1.28349 3.38816
lowerneck -21.4993 3.26174 -6.50833
upperneck 8.08545 5.50569 4.79102
head 5.56366 2.8619 3.15101
rclavicle 8.94531e-015 1.03368e-014
rhumerus -32.6367 15.3235 -89.9141
rradius 40.4192
rwrist 20.6097
rhand -9.08837 -4.93334
rfingers 7.12502
rthumb 16.8614 -34.2213
lclavicle 8.94531e-015 1.03368e-014
lhumerus -38.1537 -24.2938 100.083
lradius 53.3254
lwrist 18.9841
lhand -11.0706 24.353
lfingers 7.12502
lthumb 14.9525 53.7932
rfemur -15.2537 -16.3345 11.9918
rtibia 62.3916
rfoot 2.88751 1.15859
rtoes 0.441336
lfemur -27.1779 2.40088 -23.685
ltibia 33.5045
lfoot -8.2731 -1.57271
ltoes -5.87554
510
root -3.78432 17.5564 -3.16898 6.21618 -27.6392 -0.248561
lowerback 7.56759 1.90502 -1.31055
upperback 2.77878 2.46799 2.86527
thorax -1.54995 1.20876 3.47735
lowerneck -20.8455 3.33225 -6.4812
upperneck 7.99201 5.5295 4.99427
head 5.42603 2.8891 3.19385
rclavicle -2.72335e-014 -1.19271e-014
rhumerus -32.2753 16.8341 -89.7668
rradius 40.5636
rwrist 21.7288
rhand -9.0825 -3.63022
rfingers 7.12502
rthumb 16.867 -32.9177
lclavicle -2.72335e-014 -1.19271e-014
lhumerus -38.407 -24.0897 100.629
lradius 53.8792
lwrist 18.4839
lhand -11.0638 24.1894
lfingers 7.12502
lthumb 14.959 53.6292
rfemur -15.7701 -16.3696 11.8381
rtibia 63.4791
rfoot 2.12931 0.479473
rtoes -1.72216
lfemur -27.058 2.35219 -23.8732
ltibia 33.6078
lfoot -8.49097 -2.10096
ltoes -6.13519
511
root -3.80794 17.5562 -3.11014 6.04302 -26.9716 -0.0358899
lowerback 7.62959 1.86527 -1.56795
upperback 2.82441 2.39547 2.82211
thorax -1.54027 1.17159 3.58368
lowerneck -20.9248 3.24966 -6.51619
upperneck 8.25717 5.39426 5.27453
head 5.52269 2.84247 3.28573
rclavicle 1.88845e-014 -3.57812e-014
rhumerus -31.6587 18.0757 -89.394
rradius 40.8329
rwrist 22.5343
rhand -9.1014 -2.14406
rfingers 7.12502
rthumb 16.8488 -31.4331
lclavicle 1.88845e-014 -3.57812e-014
lhumerus -38.1893 -24.1551 101.049
lradius 54.2108
lwrist 18.084
lhand -10.7362 24.5268
lfingers 7.12502
lthumb 15.2746 53.9428
rfemur -16.2217 -16.4605 11.5777
rtibia 64.4495
rfoot 1.26562 -0.335791
rtoes -4.47405
lfemur -26.8483 2.25043 -24.1439
ltibia 33.7188
lfoot -8.79444 -2.64273
ltoes -6.67781
